<?xml version="1.0" standalone="no"?><!DOCTYPE svg PUBLIC "-//W3C//DTD SVG 1.1//EN" "http://www.w3.org/Graphics/SVG/1.1/DTD/svg11.dtd"><svg t="1752341165194" class="icon" viewBox="0 0 1028 1024" version="1.1" xmlns="http://www.w3.org/2000/svg" p-id="3449" xmlns:xlink="http://www.w3.org/1999/xlink" width="200.78125" height="200"><path d="M586.524865 219.851637a392.51724 392.51724 0 1 1-392.51724 392.51724 392.51724 392.51724 0 0 1 392.51724-392.51724z" fill="#FE9E0E" p-id="3450"></path><path d="M899.856018 850.951095c-7.167706 8.191664-14.676732 15.70069-22.185757 23.551034l100.347886 92.497541a28.670824 28.670824 0 0 1 9.898261 21.844438 30.718741 30.718741 0 0 1-30.036102 30.377421C699.842885 1024 553.07557 1024 516.213081 1024a511.979009 511.979009 0 1 1 383.642937-173.048905zM516.213081 60.114186a451.906805 451.906805 0 1 0 0 903.472291c32.084018 0 154.276341-1.706597 365.553012-4.095832l-68.263868-62.802759-2.389235-2.389235a29.694783 29.694783 0 0 1 2.730555-40.958321 451.906805 451.906805 0 0 0-297.630464-793.226144z m18.772564 329.714482a63.485397 63.485397 0 0 1-18.772564-88.06039v-1.706597a63.826716 63.826716 0 1 1 18.772564 89.766987z m43.006236 64.509355c40.275682 18.089925-14.335412 127.994752-18.431244 146.084677s-29.353463 145.402039 55.293733 72.701019c0 0 41.640959-27.988186-18.772564 36.52117s-136.527736 84.988515-145.743358 36.17985a1407.259636 1407.259636 0 0 1 36.52117-218.785697c0-16.383328-18.772564 0-18.772564 0s-59.389565 41.640959-72.701019 18.431244c-2.389235-3.754513 18.089925-18.431244 18.089925-18.431244s123.89892-91.473583 164.515921-72.701019z" fill="#333333" p-id="3451"></path><path d="M895.760186 850.951095c-7.167706 8.191664-14.676732 15.70069-22.527076 23.209715l100.347886 92.83886a27.646866 27.646866 0 0 1 10.23958 21.503119 30.718741 30.718741 0 0 1-30.036102 30.71874c-258.03742 2.730555-403.439459 4.778471-441.667225 4.778471a511.979009 511.979009 0 1 1 383.642937-173.048905zM512.117249 60.114186a451.906805 451.906805 0 1 0 0 903.472291c32.084018 0 154.276341-2.047916 365.211693-4.095832l-68.263868-62.802759-2.389235-2.389235a30.377421 30.377421 0 0 1 2.730554-40.958321A451.906805 451.906805 0 0 0 512.117249 61.479463z m18.772564 329.714482a63.826716 63.826716 0 0 1-20.137841-88.06039v-1.706597a63.485397 63.485397 0 1 1 18.772563 89.766987z m42.664917 64.509355c40.617001 18.089925-13.994093 127.653433-18.089925 146.084677s-29.353463 145.402039 54.952414 72.701019c0 0 41.640959-28.329505-18.772564 36.17985s-136.527736 85.329835-145.402039 36.52117a1355.379096 1355.379096 0 0 1 35.838531-218.785697c1.706597-16.383328-18.772564 0-18.772564 0s-59.389565 41.640959-73.042338 18.089925c-2.047916-3.413193 18.431244-18.089925 18.431244-18.089925s124.240239-91.473583 164.857241-72.701019z" fill="#333333" p-id="3452"></path></svg>