<?xml version="1.0" standalone="no"?><!DOCTYPE svg PUBLIC "-//W3C//DTD SVG 1.1//EN" "http://www.w3.org/Graphics/SVG/1.1/DTD/svg11.dtd"><svg t="1751896882173" class="icon" viewBox="0 0 1024 1024" version="1.1" xmlns="http://www.w3.org/2000/svg" p-id="8299" xmlns:xlink="http://www.w3.org/1999/xlink" width="200" height="200"><path d="M131.026745 887.525823c0 20.941421 8.341075 40.906759 23.071057 55.725477s34.784055 23.071057 55.725477 23.071057h664.268977c20.941421 0 40.906759-8.341075 55.725477-23.071057 14.818718-14.818718 23.071057-34.784055 23.071057-55.725477V223.256846c0-20.941421-8.341075-40.906759-23.071057-55.725477-14.818718-14.818718-34.784055-23.071057-55.725477-23.071057h-664.268977c-20.941421 0-40.906759 8.341075-55.725477 23.071057s-23.071057 34.784055-23.071057 55.725477v664.268977z" fill="#B3B3B3" p-id="8300"></path><path d="M71.130731 831.267938c0 20.586482 8.163605 40.37435 22.804853 54.926863s34.340381 22.804853 54.926863 22.804852h666.398614c42.94766 0 77.731716-34.784055 77.731715-77.731715V230.444367h-821.862045v600.823571z" fill="#F9F9F9" p-id="8301"></path><path d="M815.261061 924.52825h-666.398614c-24.934489 0-48.360485-9.672097-65.929983-27.33033-17.658232-17.658232-27.330329-40.995494-27.330329-65.929982V214.915771h852.919238v616.352167c0 51.37747-41.794107 93.260312-93.260312 93.260312z m-728.601733-678.555286v585.294974c0 16.593414 6.477643 32.210745 18.190641 43.923743 11.712998 11.712998 27.330329 18.190641 43.923743 18.190641h666.398614c34.251646 0 62.20312-27.862738 62.203119-62.203119V245.884229h-790.716117z" fill="#333333" p-id="8302"></path><path d="M71.130731 271.262392h821.862045V180.486655c0-20.586482-8.163605-40.37435-22.804852-54.926863s-34.340381-22.804853-54.926863-22.804853h-666.398614c-20.586482 0-40.37435 8.163605-54.926863 22.804853s-22.804853 34.340381-22.804853 54.926863v90.775737z" fill="#FF9966" p-id="8303"></path><path d="M908.521373 286.790988h-852.919238V180.486655c0-24.934489 9.672097-48.360485 27.330329-65.929983 17.658232-17.569497 40.995494-27.330329 65.929983-27.330329h666.398614c24.934489 0 48.360485 9.672097 65.929982 27.330329 17.569497 17.658232 27.330329 40.995494 27.33033 65.929983v106.304333z m-821.862045-31.057193h790.804852v-75.158405c0-16.593414-6.477643-32.210745-18.190641-43.923744s-27.330329-18.190641-43.923744-18.190641h-666.398613c-16.593414 0-32.210745 6.477643-43.923744 18.190641-11.712998 11.712998-18.190641 27.330329-18.190641 43.923744v75.158405z" fill="#333333" p-id="8304"></path><path d="M289.595896 154.132409c-12.777816 6.832582-21.385095 20.231542-21.385095 35.671404 0 22.361179 18.101906 40.463085 40.463085 40.463085 22.361179 0 40.37435-18.101906 40.37435-40.463085 0-15.439861-8.696014-28.838821-21.385096-35.671404V76.666898c-0.088735-10.470711-8.607279-18.989255-19.077989-18.989255-5.057886 0-9.849567 2.040901-13.487695 5.590295-3.549393 3.549393-5.590295 8.429809-5.590295 13.487695v77.376776z m347.041941 0c-12.777816 6.832582-21.385095 20.231542-21.385095 35.671404 0 22.361179 18.101906 40.463085 40.463085 40.463085 22.361179 0 40.463085-18.101906 40.463085-40.463085 0-15.439861-8.696014-28.838821-21.385096-35.671404V76.666898c0-10.470711-8.518544-18.989255-18.989254-18.989255-5.057886 0-9.849567 2.040901-13.487695 5.590295-3.549393 3.549393-5.590295 8.429809-5.590295 13.487695v77.376776z" fill="#333333" p-id="8305"></path><path d="M482.150489 672.698787l-121.389255 87.847487V378.897747h242.77851v381.559792l-121.389255-87.758752z" fill="#FF9966" p-id="8306"></path></svg>