<?xml version="1.0" standalone="no"?><!DOCTYPE svg PUBLIC "-//W3C//DTD SVG 1.1//EN" "http://www.w3.org/Graphics/SVG/1.1/DTD/svg11.dtd"><svg t="1752393193607" class="icon" viewBox="0 0 1074 1024" version="1.1" xmlns="http://www.w3.org/2000/svg" p-id="4741" xmlns:xlink="http://www.w3.org/1999/xlink" width="209.765625" height="200"><path d="M320 295.776m320 0l0 0q320 0 320 320l0 0q0 320-320 320l0 0q-320 0-320-320l0 0q0-320 320-320Z" fill="#DAECF8" p-id="4742"></path><path d="M1013.632 387.648a87.776 87.776 0 0 0-84.96-78.656h-1.856a79.712 79.712 0 0 1-79.392-79.744c0.736-10.112 3.104-20.064 6.944-29.44 18.464-43.2 4.16-93.44-34.24-120.48L699.008 11.648 694.048 9.28A97.568 97.568 0 0 0 655.04 1.472a105.6 105.6 0 0 0-75.168 30.592 139.104 139.104 0 0 1-65.44 40.384A138.848 138.848 0 0 1 448.832 31.36 104.8 104.8 0 0 0 373.408 0a98.88 98.88 0 0 0-39.008 7.808L207.936 77.056l-4.96 3.2A98.912 98.912 0 0 0 169.536 199.68c4 9.44 6.4 19.52 7.168 29.76A80.416 80.416 0 0 1 94.208 309.12h-1.952a87.328 87.328 0 0 0-81.856 79.392c-6.08 32.864-9.6 66.176-10.4 99.584 0.832 33.728 4.352 67.296 10.528 100.48a87.584 87.584 0 0 0 81.984 78.624h4.832a79.68 79.68 0 0 1 79.392 79.68 91.168 91.168 0 0 1-7.072 29.44 99.488 99.488 0 0 0 33.568 119.872l119.392 67.36 4.832 2.368c12.288 5.376 25.6 8.064 39.008 7.936a104.192 104.192 0 0 0 76.16-32.192 145.248 145.248 0 0 1 66.784-43.136c26.176 7.808 49.504 23.04 67.2 43.84a102.4 102.4 0 0 0 76.032 33.056 97.6 97.6 0 0 0 39.264-7.936l124.224-68.48 4.96-3.2a98.912 98.912 0 0 0 33.312-119.264 96.992 96.992 0 0 1-7.072-29.728 80.384 80.384 0 0 1 82.72-79.648 88.928 88.928 0 0 0 83.584-79.232c6.08-32.864 9.6-66.176 10.4-99.584a629.664 629.664 0 0 0-10.272-100.704h-0.128z m-71.968 186.752c-1.728 9.408-6.688 19.456-12.64 19.456a152.416 152.416 0 0 0-154.816 152.832c0.736 19.936 5.088 39.552 12.8 57.952a26.208 26.208 0 0 1-7.808 31.072h-0.256l-118.4 65.28a26.24 26.24 0 0 1-7.936 1.12 29.408 29.408 0 0 1-21.536-8.8c-6.688-7.296-63.776-68-121.6-68-58.72 0-120 65.92-120.64 66.496a32 32 0 0 1-22.4 8.672 24.224 24.224 0 0 1-8.8-1.472l-0.96-0.48-113.088-63.776a26.272 26.272 0 0 1-6.944-28.992c8-18.72 12.48-38.72 13.248-59.072a152.928 152.928 0 0 0-152.576-152.832h-4.8c-1.728-0.384-7.552-5.952-10.144-19.2a570.464 570.464 0 0 1-9.152-86.816c0.8-28.992 3.904-57.92 9.216-86.4a30.112 30.112 0 0 1 9.6-19.2h2.368a152.768 152.768 0 0 0 155.552-152.96 163.872 163.872 0 0 0-12.8-58.112 26.528 26.528 0 0 1 7.168-30.464l1.248-0.736L365.44 74.24a32.384 32.384 0 0 1 30.464 7.424c2.464 2.592 61.312 64 118.784 64 56.736 0 115.424-60.064 117.92-62.656 6.176-5.44 14.144-8.448 22.4-8.416a24.448 24.448 0 0 1 8.928 1.472l0.992 0.48 115.2 64.32a26.72 26.72 0 0 1 7.552 29.44 164.992 164.992 0 0 0-13.248 59.072 152.768 152.768 0 0 0 152.576 152.832c10.4 0 13.76 13.376 14.848 19.2 5.408 28.64 8.512 57.696 9.28 86.816a514.112 514.112 0 0 1-9.056 86.56l-0.416-0.32z" fill="#0081CC" p-id="4743"></path><path d="M512.128 292.672a195.2 195.2 0 1 0 0 390.4 195.2 195.2 0 0 0 0-390.4z m0 317.056a121.856 121.856 0 1 1 0-243.712 121.856 121.856 0 0 1 0 243.712z" fill="#0081CC" p-id="4744"></path></svg>