<?xml version="1.0" standalone="no"?><!DOCTYPE svg PUBLIC "-//W3C//DTD SVG 1.1//EN" "http://www.w3.org/Graphics/SVG/1.1/DTD/svg11.dtd"><svg t="1752393197389" class="icon" viewBox="0 0 1024 1024" version="1.1" xmlns="http://www.w3.org/2000/svg" p-id="4888" xmlns:xlink="http://www.w3.org/1999/xlink" width="200" height="200"><path d="M483.32958 997.675698l-102.811025 23.18001a127.745989 127.745989 0 0 1-136.008894-56.304757l-56.377881-89.210135a127.745989 127.745989 0 0 0-39.486453-39.6327l-89.210135-56.59725a127.745989 127.745989 0 0 1-56.231635-135.716402L26.456691 539.925332a127.745989 127.745989 0 0 0 0-55.792896L3.203557 380.882672a127.745989 127.745989 0 0 1 56.231635-135.716402l89.210135-56.59725c15.940827-10.164106 29.395471-23.691872 39.486453-39.632699l56.451004-89.210135a127.745989 127.745989 0 0 1 136.008895-56.304758l102.737901 23.106888c18.427012 4.094891 37.512131 4.094891 55.939142 0L642.15287 3.421428a127.745989 127.745989 0 0 1 136.008895 56.304758l56.37788 89.210135c10.090983 15.940827 23.545626 29.468594 39.486454 39.632699l89.210135 56.59725a127.745989 127.745989 0 0 1 56.231634 135.716402l-23.18001 103.322887a127.672866 127.672866 0 0 0 0 55.792896l23.18001 103.396009a127.672866 127.672866 0 0 1-56.231634 135.716402l-89.210135 56.59725a127.672866 127.672866 0 0 0-39.486454 39.559577l-56.451003 89.210135a127.745989 127.745989 0 0 1-136.008895 56.304757l-102.737902-23.033764a127.599743 127.599743 0 0 0-55.939142 0z m18.500135-446.781907L321.435122 731.288384a21.205688 21.205688 0 0 0 23.764995 34.514085s300.535784-130.305296 303.972567-131.914003a26.397425 26.397425 0 0 0 14.624612-17.037673l48.553713-175.275979 9.871614 9.652244a26.104933 26.104933 0 0 0 36.927146-36.927146L609.174369 264.251389a26.104933 26.104933 0 0 0-37.000269 36.927146l9.725367 9.652244-175.641594 48.919329a26.909287 26.909287 0 0 0-17.110796 14.990227l-131.621511 303.826322a21.205688 21.205688 0 0 0 34.952823 23.106887L472.58049 521.644566a53.233589 53.233589 0 1 1 29.249225 29.249225z" fill="#007AFF" p-id="4889"></path></svg>