<?xml version="1.0" standalone="no"?><!DOCTYPE svg PUBLIC "-//W3C//DTD SVG 1.1//EN" "http://www.w3.org/Graphics/SVG/1.1/DTD/svg11.dtd"><svg t="1752858524884" class="icon" viewBox="0 0 1203 1024" version="1.1" xmlns="http://www.w3.org/2000/svg" p-id="7782" xmlns:xlink="http://www.w3.org/1999/xlink" width="234.9609375" height="200"><path d="M490.299811 507.167617v423.968383A92.034857 92.034857 0 0 1 398.264954 1023.170857H135.150286a27.638095 27.638095 0 0 1-27.638095-27.638095V415.961903h290.752763a92.034857 92.034857 0 0 1 92.034857 91.205714z" fill="#00CC86" p-id="7783"></path><path d="M1174.06629 1024H27.638095a27.638095 27.638095 0 0 1 0-55.276191h1146.428195a27.638095 27.638095 0 0 1 0 55.276191z" fill="#492F5D" p-id="7784"></path><path d="M135.150286 1024a27.638095 27.638095 0 0 1-27.638095-27.638095V171.364759a27.638095 27.638095 0 0 1 18.793905-27.638095L556.354859 1.390473a27.638095 27.638095 0 0 1 24.874286 3.869333 27.638095 27.638095 0 0 1 11.608 22.386857v939.695242a27.638095 27.638095 0 1 1-55.276191 0V66.339997L162.788382 191.264188v805.097717a27.638095 27.638095 0 0 1-27.638096 27.638095z" fill="#492F5D" p-id="7785"></path><path d="M565.19905 996.361905a27.638095 27.638095 0 0 1-27.638096-27.638096v-580.400002a27.638095 27.638095 0 0 1 36.205905-27.638095l430.048764 143.441715a27.638095 27.638095 0 0 1 18.793904 25.979809v328.064192a27.638095 27.638095 0 0 1-55.27619 0V549.453903l-374.496192-124.64781v543.917716a27.638095 27.638095 0 0 1-27.638095 27.638096z" fill="#492F5D" p-id="7786"></path></svg>