<?xml version="1.0" standalone="no"?><!DOCTYPE svg PUBLIC "-//W3C//DTD SVG 1.1//EN" "http://www.w3.org/Graphics/SVG/1.1/DTD/svg11.dtd"><svg t="1752456773368" class="icon" viewBox="0 0 1024 1024" version="1.1" xmlns="http://www.w3.org/2000/svg" p-id="4506" xmlns:xlink="http://www.w3.org/1999/xlink" width="200" height="200"><path d="M804.949333 854.101333l64-249.045333a109.568 109.568 0 0 0-28.032-111.36 117.845333 117.845333 0 0 0-93.098666-29.866667 108.458667 108.458667 0 0 0-91.306667 76.8 32.554667 32.554667 0 0 1-37.589333 21.589334 129.066667 129.066667 0 0 0-26.837334-1.578667 85.973333 85.973333 0 0 0-25.344 3.754667 106.026667 106.026667 0 0 0-65.024 50.389333 127.274667 127.274667 0 0 0 0.298667 122.325333 104.021333 104.021333 0 0 0 65.024 49.450667l0.597333 0.64h1.493334v0.298667h0.597333l46.933333 13.781333h0.896zM401.834667 283.904l-0.298667-1.237333-14.933333-58.837334a52.949333 52.949333 0 0 1 14.336-53.802666l1.792-0.938667a45.056 45.056 0 0 1 18.218666-10.624 50.816 50.816 0 0 1 21.76-1.578667 48.938667 48.938667 0 0 1 36.394667 21.589334 51.2 51.2 0 0 1 36.693333 21.888 57.472 57.472 0 0 1 8.96 21.589333l0.298667 1.237333a55.68 55.68 0 0 1 0 22.229334 49.28 49.28 0 0 1-37.290667 40.064l-57.002666 15.957333h-0.597334a20.565333 20.565333 0 0 1-17.621333-2.517333 27.221333 27.221333 0 0 1-10.453333-12.8l-0.298667-0.64z m22.656-70.698667l11.349333 44.757334 41.770667-11.562667c4.778667-1.578667 8.533333-3.754667 9.557333-9.088a7.509333 7.509333 0 0 0-0.298667-5.632v-0.64a34.858667 34.858667 0 0 0-2.389333-5.930667 12.288 12.288 0 0 0-12.544-5.333333 19.114667 19.114667 0 0 1-22.357333-13.141333 12.8 12.8 0 0 0-10.154667-9.088 10.112 10.112 0 0 0-6.869333 0.938666 13.44 13.44 0 0 0-4.266667 2.176l-0.896 0.64a10.837333 10.837333 0 0 0-2.858667 11.776z m182.912-69.162666l11.050666-43.818667a12.501333 12.501333 0 0 0-3.584-12.202667 10.368 10.368 0 0 0-5.674666-3.114666 19.754667 19.754667 0 0 0-5.973334-0.938667l-0.298666 0.298667a13.226667 13.226667 0 0 0-9.856 9.386666 19.498667 19.498667 0 0 1-21.76 13.141334 13.056 13.056 0 0 0-12.8 4.266666 14.890667 14.890667 0 0 0-2.688 6.272 10.069333 10.069333 0 0 0 0 5.930667 11.050667 11.050667 0 0 0 8.533333 9.088h0.597333z m48.938666-33.152l-14.933333 58.496v1.237333l-0.896 1.578667v0.64a25.344 25.344 0 0 1-10.154667 13.44 24.405333 24.405333 0 0 1-18.218666 2.176l-56.704-16.256h-0.597334a51.754667 51.754667 0 0 1-37.290666-40.362667 62.037333 62.037333 0 0 1 0-23.466667 64.298667 64.298667 0 0 1 9.258666-21.333333 49.450667 49.450667 0 0 1 36.394667-21.589333 47.317333 47.317333 0 0 1 34.602667-21.888l1.194666-0.64a55.978667 55.978667 0 0 1 22.656 2.816 53.504 53.504 0 0 1 19.114667 11.562666 51.968 51.968 0 0 1 15.573333 53.461334z m-61.482666 269.994666l11.050666-44.757333a12.8 12.8 0 0 0-3.285333-12.202667 14.08 14.08 0 0 0-5.674667-2.816 8.533333 8.533333 0 0 0-5.973333-1.578666h-0.597333a13.696 13.696 0 0 0-9.557334 9.386666 18.645333 18.645333 0 0 1-22.058666 13.141334 12.416 12.416 0 0 0-12.544 4.992v0.298666a23.082667 23.082667 0 0 0-2.688 6.272v0.64a9.088 9.088 0 0 0 0 5.632 11.562667 11.562667 0 0 0 8.96 8.533334z m49.237333-33.792l-14.933333 58.837334-0.597334 1.237333-0.597333 1.578667-0.597333 0.64a23.850667 23.850667 0 0 1-10.154667 12.8 24.448 24.448 0 0 1-17.621333 2.517333h-0.597334L542.293333 408.746667h-0.597333a50.56 50.56 0 0 1-37.290667-40.064 55.68 55.68 0 0 1 0-22.229334l0.597334-1.237333a60.330667 60.330667 0 0 1 8.96-21.589333 51.2 51.2 0 0 1 36.693333-21.888 45.397333 45.397333 0 0 1 34.133333-21.589334l1.194667-0.938666a59.733333 59.733333 0 0 1 22.357333 2.816 54.016 54.016 0 0 1 19.413334 11.562666 52.010667 52.010667 0 0 1 16.384 53.376z m-31.317333 524.373334a132.906667 132.906667 0 0 1-16.426667 7.509333l-1.792 0.938667c-9.258667 4.266667-19.114667 7.210667-28.330667 10.624l-318.378666 88.832-2.688 0.64a51.2 51.2 0 0 1-39.68-6.570667 57.429333 57.429333 0 0 1-26.538667-35.669333l-85.034667-333.525334a213.717333 213.717333 0 0 1 58.197334-219.306666 229.290667 229.290667 0 0 1 81.066666-47.232 226.602667 226.602667 0 0 1 92.501334-9.386667 207.189333 207.189333 0 0 1 167.68 122.965333 212.650667 212.650667 0 0 1 70.4 6.869334v-0.298667a230.869333 230.869333 0 0 1 49.536 20.352 170.069333 170.069333 0 0 1 127.402666-82.602667 176.426667 176.426667 0 0 1 76.373334 8.533334 172.629333 172.629333 0 0 1 66.517333 38.186666 176.384 176.384 0 0 1 48.341333 180.522667l-67.114666 263.722667h-0.597334v1.877333a55.210667 55.210667 0 0 1-20.565333 28.8l-2.688 2.517333a48.896 48.896 0 0 1-36.992 5.333334h-2.218667z m-109.184-352.298667a349.653333 349.653333 0 0 0-24.149334 2.816 32.896 32.896 0 0 1-37.589333-21.589333 145.493333 145.493333 0 0 0-122.624-103.850667 161.024 161.024 0 0 0-66.816 7.210667 169.258667 169.258667 0 0 0-57.6 32.853333 146.858667 146.858667 0 0 0-37.589333 150.186667l82.645333 323.498666 267.349333-74.794666a163.626667 163.626667 0 0 1-61.482666-62.592 198.954667 198.954667 0 0 1-25.045334-96.042667 193.92 193.92 0 0 1 24.746667-96.042667 173.098667 173.098667 0 0 1 58.154667-61.781333z" fill="#E92A33" p-id="4507"></path></svg>