<?xml version="1.0" standalone="no"?><!DOCTYPE svg PUBLIC "-//W3C//DTD SVG 1.1//EN" "http://www.w3.org/Graphics/SVG/1.1/DTD/svg11.dtd"><svg t="1752337039967" class="icon" viewBox="0 0 1084 1024" version="1.1" xmlns="http://www.w3.org/2000/svg" p-id="4275" xmlns:xlink="http://www.w3.org/1999/xlink" width="211.71875" height="200"><path d="M558.501647 331.896471v464.655058h361.170824a88.545882 88.545882 0 0 0 87.16047-73.125647l50.778353-287.623529a88.545882 88.545882 0 0 0-87.16047-103.905882H558.501647z m88.545882 376.169411V420.442353h323.403295l-50.778353 287.623529h-272.624942z" fill="#6CEEFC" p-id="4276"></path><path d="M857.268706 44.634353l-42.646588 877.929412a88.545882 88.545882 0 0 1-88.425412 84.208941H147.456A88.545882 88.545882 0 0 1 59.030588 922.563765L16.384 44.634353h840.884706z" fill="#6CEEFC" p-id="4277"></path><path d="M393.938824 275.757176c169.682824 42.947765 223.533176 123.361882 375.205647 94.147765l-26.443295 538.383059a22.106353 22.106353 0 0 1-22.106352 21.082353H152.997647a22.106353 22.106353 0 0 1-22.046118-21.082353l-29.214117-593.317647c92.521412-52.103529 189.921882-65.114353 292.261647-39.213177z" fill="#23CFE2" p-id="4278"></path><path d="M315.151059 774.445176m-66.379294 0a66.379294 66.379294 0 1 0 132.758588 0 66.379294 66.379294 0 1 0-132.758588 0Z" fill="#6CEEFC" p-id="4279"></path><path d="M569.584941 608.496941m-60.235294 0a60.235294 60.235294 0 1 0 120.470588 0 60.235294 60.235294 0 1 0-120.470588 0Z" fill="#6CEEFC" p-id="4280"></path><path d="M381.530353 420.442353m-60.235294 0a60.235294 60.235294 0 1 0 120.470588 0 60.235294 60.235294 0 1 0-120.470588 0Z" fill="#6CEEFC" p-id="4281"></path></svg>