<?xml version="1.0" standalone="no"?><!DOCTYPE svg PUBLIC "-//W3C//DTD SVG 1.1//EN" "http://www.w3.org/Graphics/SVG/1.1/DTD/svg11.dtd"><svg t="1751896976085" class="icon" viewBox="0 0 1114 1024" version="1.1" xmlns="http://www.w3.org/2000/svg" p-id="9037" xmlns:xlink="http://www.w3.org/1999/xlink" width="217.578125" height="200"><path d="M1039.785912 959.714549L796.314053 602.619469H281.382513z" fill="#7AD5EB" p-id="9038"></path><path d="M1058.503363 946.955327l-243.471859-357.095079a22.650336 22.650336 0 0 0-18.717451-9.900177H281.382513a22.645805 22.645805 0 0 0-9.646442 43.143929l758.403398 357.099611c9.238655 4.354265 20.257982 1.980035 26.886796-5.790584s7.240496-19.016496 1.477098-27.4577zM281.382513 625.274336h514.93154c-7.489699 0-14.499115-3.697274-18.717451-9.895646l243.471858 357.09508a22.650336 22.650336 0 0 1 28.368425-33.252814L291.033487 582.125876a22.654867 22.654867 0 0 1-9.650974 43.14846z" fill="#6E6E96" p-id="9039"></path><path d="M897.341168 975.414372L194.782018 644.612531 58.902655 975.414372z" fill="#00CCC6" p-id="9040"></path><path d="M906.992142 954.920779l-702.559151-330.806372a22.632212 22.632212 0 0 0-30.602195 11.889274l-135.879362 330.806372a22.654867 22.654867 0 0 0 20.955752 31.263717h838.438513a22.654867 22.654867 0 0 0 9.646443-43.152991z m-827.133735 29.102442l135.879363-330.806371a22.654867 22.654867 0 0 1-12.750159 12.519079 22.677522 22.677522 0 0 1-17.852036-0.629805l702.559151 330.806372a22.645805 22.645805 0 0 1-12.460177-25.432354 22.66846 22.66846 0 0 1 22.11115-17.716107H58.902655a22.654867 22.654867 0 0 1 20.955752 31.259186z" fill="#6E6E96" p-id="9041"></path><path d="M540.44092 29.496637c-148.38485 0-240.141593 101.602549-240.141593 234.228673s229.946903 422.078301 243.095788 422.078301c9.428956 0 237.187398-289.456708 237.187398-422.078301-0.018124-132.626124-99.645168-234.228673-240.141593-234.228673z" fill="#FFE147" p-id="9042"></path><path d="M345.568283 308.96708c0-126.74492 81.87469-223.843681 214.274266-223.843682 125.362973 0 214.265204 97.098761 214.274265 223.843682 0 24.535221-7.639221 54.697912-19.981593 87.370761 19.909097-43.483752 32.922053-84.112991 32.922053-115.784496-0.013593-132.626124-99.645168-234.228673-240.141593-234.228672-148.38485 0-240.141593 101.602549-240.141593 234.228672s229.946903 422.082832 243.095788 422.082832c0.28092 0 0.756673-0.276389 1.39554-0.752142-45.205522-51.489982-205.697133-280.802549-205.697133-392.916955z" fill="#FFFFFF" opacity=".38" p-id="9043"></path><path d="M661.803044 40.710796c50.878301 39.179327 81.584708 100.374655 81.59377 171.166585 0 122.798442-210.889628 390.828177-219.620814 390.828177-12.115823 0-222.914832-265.297558-225.039858-388.934231a276.892319 276.892319 0 0 0-1.667399 29.899894c0 132.626124 229.946903 422.082832 243.095788 422.082832 9.428956 0 237.191929-289.46577 237.191929-422.082832-0.013593-88.449133-44.367292-163.038018-115.553416-202.960425z" fill="#6E6E96" opacity=".15" p-id="9044"></path><path d="M540.44092 6.84177c-154.728212 0-262.79646 105.635115-262.79646 256.88354 0 76.210973 65.477097 190.69508 120.406089 273.31738 36.12092 54.335434 68.218336 95.771186 84.135646 115.634974 44.707115 55.789876 51.272496 55.789876 61.20892 55.789876 10.575292 0 15.40531 0 58.929841-56.061735 15.763257-20.298761 47.398513-62.300885 82.160141-115.508106 54.17685-82.903221 118.752283-197.591221 118.752284-273.167858-0.018124-146.450124-112.993416-256.888071-262.796461-256.888071z m217.486726 256.888071c0 116.464142-201.628319 381.793416-227.128637 403.519433 0.194832-0.158584 4.893451-4.086938 12.596106-4.086938 6.764743 0 10.874336 3.076531 11.046513 3.203399-24.562407-18.717451-231.487434-283.539257-231.487433-402.631363 0-126.550088 87.402478-211.573805 217.486725-211.573806 126.010903-0.009062 217.468602 88.970195 217.486726 211.569275z" fill="#6E6E96" p-id="9045"></path></svg>