<?xml version="1.0" standalone="no"?><!DOCTYPE svg PUBLIC "-//W3C//DTD SVG 1.1//EN" "http://www.w3.org/Graphics/SVG/1.1/DTD/svg11.dtd"><svg t="1751896867981" class="icon" viewBox="0 0 1024 1024" version="1.1" xmlns="http://www.w3.org/2000/svg" p-id="8152" xmlns:xlink="http://www.w3.org/1999/xlink" width="200" height="200"><path d="M511.793757 24.015625S110.200031 338.57071 110.200031 608.0065s161.597475 391.513883 401.593726 391.513882c243.676193 0 401.593725-122.078093 401.593725-391.513882S511.793757 24.015625 511.793757 24.015625z" fill="#FF4545" p-id="8153"></path><path d="M511.793757 1024C241.397981 1024 86.200406 872.162372 86.200406 608.0065 86.200406 330.090842 480.274249 18.255715 497.073987 5.13592a23.839628 23.839628 0 0 1 29.599537 0C543.473262 18.255715 937.387107 330.090842 937.387107 608.0065c0 267.995813-151.03764 415.9935-425.59335 415.9935z m0-968.624865C440.274874 114.414212 134.199656 382.09003 134.199656 608.0065c0 236.956298 134.077905 367.99425 377.594101 367.99425 172.317308 0 377.5941-63.999 377.5941-367.99425 0-226.076468-306.075218-493.592288-377.5941-553.111358z" fill="#FFFFFF" p-id="8154"></path><path d="M426.195094 310.091155a1074.383213 1074.383213 0 0 0-110.398275 127.998 28.79955 28.79955 0 0 1-23.359635 12.15981 28.639553 28.639553 0 0 1-23.359635-44.959298 1129.58235 1129.58235 0 0 1 116.47818-135.997875 28.639553 28.639553 0 0 1 40.639365 40.159373z" fill="#FFFFFF" p-id="8155"></path></svg>