<?xml version="1.0" standalone="no"?><!DOCTYPE svg PUBLIC "-//W3C//DTD SVG 1.1//EN" "http://www.w3.org/Graphics/SVG/1.1/DTD/svg11.dtd"><svg t="1751913116550" class="icon" viewBox="0 0 1024 1024" version="1.1" xmlns="http://www.w3.org/2000/svg" p-id="10790" xmlns:xlink="http://www.w3.org/1999/xlink" width="200" height="200"><path d="M150.41998 609.083142c8.076241 14.469931 16.825501 27.257312 24.565232 39.035162 77.397305 118.115018 271.900099 264.160368 280.312849 269.544529 10.768321 8.076241 23.555702 12.450871 36.343083 12.450871 13.123891 0 25.911272-4.37463 36.343082-12.450871 8.412751-6.39369 201.906014-152.10253 280.312849-269.544529 26.247782-40.044693 62.254354-94.222806 62.254355-170.947091 0-128.883339-99.270457-233.874466-221.423596-233.874466-59.898784 0-116.095958 24.901742-157.48669 70.330594-41.390733-44.419323-97.587907-70.330595-157.486691-70.330594-122.153138 0-221.423595 104.991127-221.423595 233.874466 0 23.219192 3.3651 44.419323 8.74926 63.936904 6.7302 32.977982 28.939862 67.975025 28.939862 67.975025z" fill="#97FFFF" p-id="10791"></path><path d="M935.497864 164.216891c-55.860664-58.889254-129.892869-91.530726-208.636214-91.530726-71.340125 0-137.969109 26.247782-190.464673 74.032205-53.168584-47.784423-119.797568-74.032205-190.128163-74.032205-162.534341 0-294.44627 138.97864-294.44627 309.925731 0 28.266842 3.70161 56.197174 11.44134 83.454486 1.68255 8.412751 4.03812 16.488991 7.066711 24.565232H25.574762c-13.123891 0-23.555702 10.431811-23.555702 23.555701s10.431811 23.555702 23.555702 23.555702H90.857706c5.04765 9.085771 8.749261 15.479461 10.095301 17.498521 9.422281 16.488991 19.181071 31.631942 27.930332 44.755833l2.35557 3.3651c95.905357 146.71837 325.068682 317.665462 345.595794 332.808413 18.171541 13.123891 38.698653 20.190601 59.562274 20.190601h0.33651c21.536641 0 42.736773-7.403221 59.898784-20.527111 10.095301-7.403221 246.998357-185.417023 345.259283-332.471903l1.34604-2.35557c32.977982-50.476503 78.070325-119.797568 78.070326-219.068025 0-81.435426-30.622412-159.169241-85.810056-217.721985z m-37.352613 408.186658l-1.34604 2.01906c-37.689123 56.533684-105.664147 128.210319-196.521853 207.963194-73.695695 64.609924-135.613539 110.711798-135.950049 111.048308l-0.67302 0.33651c-7.739731 6.05718-17.162011 9.422281-26.920802 9.422281h-0.33651c-9.422281 0-19.181071-3.3651-27.930332-9.758791l-1.34604-1.00953C485.920473 878.29116 262.477818 706.671048 175.994742 574.422609l-2.35557-3.3651c-6.7302-10.431811-13.796911-21.536641-20.863622-32.977982h126.864279l6.057181-4.03812c9.085771-6.05718 13.796911-15.815971 35.333552-66.292475 10.431811-24.565232 31.631942-73.695695 47.447913-101.626027 6.7302 31.631942 13.123891 85.473546 17.835031 124.845219 15.815971 131.238909 21.536641 160.178771 45.428854 167.918501 2.69208 0.67302 5.38416 1.34604 8.07624 1.34604 7.739731 0 15.479461-3.3651 21.200132-9.758791 10.095301-11.104831 18.171541-31.295432 31.631942-65.619454 7.739731-19.854091 22.546172-57.543214 33.651002-74.032205 2.69208 6.05718 6.39369 15.815971 10.768321 32.304962 4.71114 18.844561 18.844561 75.714755 61.244824 79.079856 26.584292 2.01906 52.495564-17.835031 79.416365-61.244825 9.422281-15.479461 17.498521-30.622412 22.546172-41.390732h142.00723c13.123891 0 23.555702-10.431811 23.555701-23.555702s-10.431811-23.555702-23.555701-23.555702H669.654946l-6.057181 14.469931c-20.190601 47.784423-49.803483 87.156096-61.244824 88.502136-1.34604-1.00953-10.431811-8.076241-19.517581-43.409793-8.749261-35.333552-22.209662-72.013145-52.495564-74.032205-37.352613-2.35557-57.543214 49.466973-81.435425 109.702268-1.00953 2.69208-2.35557 5.72067-3.365101 8.74926-4.37463-27.930332-8.749261-63.263884-12.11436-90.857706-4.71114-40.044693-9.758791-81.435426-15.479461-112.730858-7.06671-38.698653-14.806441-70.667105-42.063753-70.667104h-0.33651c-29.612882 0-50.476503 37.016103-97.924417 147.39139-6.39369 14.469931-13.460401 31.631942-18.508051 42.063753H127.537299c-5.04765-11.777851-10.095301-24.565232-12.450871-36.343083l-0.33651-1.68255c-6.39369-22.882682-9.422281-46.438383-9.422281-69.994085 0-140.9977 108.019717-256.084128 240.604667-256.084127 64.273414 0 124.845219 27.257312 170.610581 76.387775l19.854092 21.536641 19.854091-21.536641C601.006901 154.794611 661.578705 127.873809 726.52514 127.873809c63.936904 0 124.172198 26.584292 169.601051 74.705225 45.765363 48.457443 71.003615 112.730858 71.003615 181.378902 0.33651 81.771936-38.025633 140.9977-68.984555 188.445613z" fill="#68A5FF" p-id="10792"></path></svg>