<?xml version="1.0" standalone="no"?><!DOCTYPE svg PUBLIC "-//W3C//DTD SVG 1.1//EN" "http://www.w3.org/Graphics/SVG/1.1/DTD/svg11.dtd"><svg t="1753371022935" class="icon" viewBox="0 0 1024 1024" version="1.1" xmlns="http://www.w3.org/2000/svg" p-id="5526" xmlns:xlink="http://www.w3.org/1999/xlink" width="200" height="200"><path d="M927.288889 739.441778v193.308444H642.275556A147.512889 147.512889 0 0 1 506.311111 1024c-61.098667 0-113.777778-37.660444-136.078222-91.249778H85.333333v-193.251555c0-74.808889 35.555556-144.042667 97.28-198.087111V441.457778a325.859556 325.859556 0 0 1 178.631111-291.555556v-4.152889A145.408 145.408 0 0 1 506.254222 0a145.408 145.408 0 0 1 145.009778 145.806222v4.152889a325.859556 325.859556 0 0 1 178.631111 291.555556v99.84c62.577778 54.613333 98.531556 124.017778 97.393778 198.087111z m-113.777778-0.853334c0.682667-43.576889-25.201778-87.722667-74.524444-124.359111l-22.926223-17.066666V441.457778c0-91.306667-56.888889-170.780444-140.686222-200.533334L537.486222 227.555556V145.806222A31.687111 31.687111 0 0 0 506.197333 113.777778a31.687111 31.687111 0 0 0-31.175111 32.028444V227.555556l-37.888 13.425777A211.854222 211.854222 0 0 0 296.391111 441.514667v155.648l-22.983111 17.066666C224.711111 650.410667 199.111111 694.613333 199.111111 739.498667v79.473777h273.635556v56.888889A34.133333 34.133333 0 0 0 506.311111 910.222222a34.133333 34.133333 0 0 0 33.564445-34.360889v-56.888889h273.635555v-80.384z" fill="#6456EF" p-id="5527"></path></svg>