<?xml version="1.0" standalone="no"?><!DOCTYPE svg PUBLIC "-//W3C//DTD SVG 1.1//EN" "http://www.w3.org/Graphics/SVG/1.1/DTD/svg11.dtd"><svg t="1753371019843" class="icon" viewBox="0 0 1024 1024" version="1.1" xmlns="http://www.w3.org/2000/svg" p-id="5378" xmlns:xlink="http://www.w3.org/1999/xlink" width="200" height="200"><path d="M715.320889 255.601778a228.693333 228.693333 0 0 0-84.024889 79.872 210.773333 210.773333 0 0 0-112.810667-94.435556L480.597333 227.555556V145.806222A31.687111 31.687111 0 0 0 449.308444 113.777778a31.687111 31.687111 0 0 0-31.175111 32.028444V227.555556l-37.888 13.425777A211.854222 211.854222 0 0 0 239.502222 441.514667v155.648l-22.983111 17.066666C167.822222 650.410667 142.222222 694.613333 142.222222 739.498667v79.473777h273.635556v56.888889A34.133333 34.133333 0 0 0 449.422222 910.222222a34.133333 34.133333 0 0 0 33.564445-34.360889v-56.888889h273.635555v-80.384c0.398222-25.827556-8.533333-51.768889-26.055111-76.344888a226.702222 226.702222 0 0 0 132.551111 17.237333c5.12 19.512889 7.566222 39.537778 7.281778 59.960889v193.308444H585.386667A147.512889 147.512889 0 0 1 449.422222 1024c-61.098667 0-113.777778-37.660444-136.078222-91.249778H28.444444v-193.251555c0-74.808889 35.555556-144.042667 97.28-198.087111V441.457778a325.859556 325.859556 0 0 1 178.631112-291.555556v-4.152889A145.408 145.408 0 0 1 449.365333 0a145.408 145.408 0 0 1 145.009778 145.806222v4.152889a324.551111 324.551111 0 0 1 120.945778 105.642667z" fill="#6456EF" p-id="5379"></path><path d="M824.888889 455.111111m-170.666667 0a170.666667 170.666667 0 1 0 341.333334 0 170.666667 170.666667 0 1 0-341.333334 0Z" fill="#DF1616" p-id="5380"></path></svg>