<?xml version="1.0" standalone="no"?><!DOCTYPE svg PUBLIC "-//W3C//DTD SVG 1.1//EN" "http://www.w3.org/Graphics/SVG/1.1/DTD/svg11.dtd"><svg t="1753026990501" class="icon" viewBox="0 0 1024 1024" version="1.1" xmlns="http://www.w3.org/2000/svg" p-id="32406" xmlns:xlink="http://www.w3.org/1999/xlink" width="200" height="200"><path d="M511.998 959c-12.453 0-25.024-0.518-37.366-1.539-8.807-0.729-15.355-8.458-14.626-17.265 0.729-8.807 8.459-15.359 17.265-14.626a423.291 423.291 0 0 0 34.727 1.43 423.6 423.6 0 0 0 32.615-1.26c8.812-0.683 16.507 5.904 17.189 14.715 0.684 8.811-5.905 16.506-14.715 17.189A455.523 455.523 0 0 1 511.998 959z m83.333-8.04c-7.497 0-14.19-5.295-15.685-12.93-1.697-8.672 3.957-17.078 12.629-18.775a413.738 413.738 0 0 0 64.807-18.282c8.283-3.09 17.494 1.125 20.58 9.404 3.086 8.28-1.124 17.494-9.404 20.58a445.556 445.556 0 0 1-69.836 19.702 16.087 16.087 0 0 1-3.091 0.301z m-168.827-0.43c-1.046 0-2.106-0.103-3.17-0.316a445.725 445.725 0 0 1-69.686-20.042c-8.265-3.128-12.429-12.362-9.302-20.627 3.127-8.266 12.36-12.428 20.627-9.303a413.576 413.576 0 0 0 64.667 18.599c8.663 1.742 14.274 10.177 12.533 18.84-1.527 7.598-8.205 12.849-15.669 12.849z m281.914-38.716c-5.814 0-11.422-3.18-14.254-8.71-4.027-7.865-0.917-17.507 6.948-21.534a416.789 416.789 0 0 0 57.244-35.449c7.111-5.246 17.128-3.732 22.373 3.379s3.732 17.128-3.379 22.373a448.784 448.784 0 0 1-61.652 38.18 15.94 15.94 0 0 1-7.28 1.761z m-394.739-0.979c-2.48 0-4.996-0.578-7.35-1.798a448.855 448.855 0 0 1-61.43-38.457c-7.086-5.28-8.551-15.304-3.271-22.39 5.278-7.086 15.302-8.551 22.39-3.272a416.782 416.782 0 0 0 57.038 35.709c7.845 4.065 10.909 13.723 6.843 21.567-2.848 5.493-8.434 8.641-14.22 8.641z m492.615-67.763a15.957 15.957 0 0 1-11.703-5.085c-6.028-6.462-5.677-16.586 0.784-22.614a419.102 419.102 0 0 0 45.372-49.744c5.409-6.986 15.458-8.266 22.446-2.856 6.987 5.409 8.267 15.459 2.856 22.446a451.313 451.313 0 0 1-48.845 53.553 15.945 15.945 0 0 1-10.91 4.3z m-590.111-1.425a15.942 15.942 0 0 1-10.968-4.354 451.207 451.207 0 0 1-48.592-53.794c-5.376-7.014-4.048-17.057 2.965-22.433 7.014-5.374 17.057-4.047 22.432 2.966A419.144 419.144 0 0 0 227.156 814c6.432 6.059 6.735 16.186 0.676 22.617a15.952 15.952 0 0 1-11.649 5.03z m665.447-91.414c-2.816 0-5.668-0.743-8.255-2.306-7.564-4.567-9.994-14.402-5.426-21.967a415.105 415.105 0 0 0 29.982-60.216c3.282-8.205 12.596-12.193 20.798-8.913 8.205 3.282 12.195 12.594 8.913 20.798a447.168 447.168 0 0 1-32.301 64.872c-3.005 4.978-8.291 7.732-13.711 7.732z m-740.351-1.816c-5.447 0-10.756-2.782-13.752-7.799a446.966 446.966 0 0 1-32.005-65.091c-3.24-8.221 0.797-17.513 9.018-20.753 8.22-3.24 17.513 0.798 20.752 9.019A415.151 415.151 0 0 0 155 724.212c4.531 7.587 2.053 17.409-5.533 21.94a15.925 15.925 0 0 1-8.188 2.265z m787.337-108.113c-1.382 0-2.784-0.18-4.182-0.558-8.531-2.305-13.579-11.088-11.274-19.619a415.025 415.025 0 0 0 12.199-66.18c0.891-8.791 8.74-15.192 17.532-14.304 8.791 0.891 15.195 8.74 14.305 17.532a447.031 447.031 0 0 1-13.144 71.297c-1.926 7.133-8.384 11.832-15.436 11.832z m-833.803-2.132c-7.084 0-13.56-4.74-15.458-11.911a447.5 447.5 0 0 1-12.777-71.363c-0.847-8.796 5.597-16.612 14.393-17.46 8.788-0.849 16.613 5.598 17.459 14.394a415.4 415.4 0 0 0 11.86 66.244c2.26 8.543-2.833 17.3-11.375 19.561-1.37 0.362-2.747 0.535-4.102 0.535z m848.644-116.517c-8.738 0-15.879-7.023-15.995-15.788-0.298-22.489-2.414-45.04-6.289-67.024-1.534-8.702 4.277-17 12.979-18.535 8.704-1.534 17.001 4.277 18.534 12.98 4.173 23.674 6.452 47.951 6.773 72.155 0.117 8.836-6.951 16.094-15.787 16.211l-0.215 0.001z m-862.878-2.207c-0.1 0-0.199-0.001-0.298-0.003-8.835-0.161-15.867-7.455-15.705-16.29 0.442-24.206 2.845-48.472 7.141-72.126 1.58-8.694 9.907-14.461 18.602-12.884 8.694 1.579 14.463 9.907 12.883 18.602-3.989 21.964-6.22 44.504-6.632 66.993-0.159 8.736-7.291 15.708-15.991 15.708z m844.82-115.988c-6.885 0-13.243-4.479-15.321-11.412a414.005 414.005 0 0 0-24.524-62.702c-3.879-7.939-0.587-17.521 7.353-21.399 7.939-3.879 17.521-0.587 21.399 7.353a446.083 446.083 0 0 1 26.427 67.564c2.536 8.465-2.271 17.383-10.734 19.919a16.012 16.012 0 0 1-4.6 0.677z m-826.16-2.116c-1.547 0-3.12-0.226-4.677-0.702-8.451-2.58-13.211-11.522-10.631-19.974a445.92 445.92 0 0 1 26.758-67.395c3.919-7.921 13.516-11.164 21.437-7.244 7.919 3.919 11.163 13.517 7.244 21.437a413.817 413.817 0 0 0-24.833 62.545c-2.105 6.894-8.445 11.333-15.298 11.333z m776.198-106.572c-5.268 0-10.424-2.598-13.48-7.361a418.482 418.482 0 0 0-40.825-53.548c-5.906-6.573-5.367-16.689 1.206-22.595 6.571-5.905 16.688-5.366 22.595 1.206a450.628 450.628 0 0 1 43.956 57.655c4.772 7.437 2.612 17.335-4.824 22.107a15.928 15.928 0 0 1-8.628 2.536z m-725.715-1.799c-2.984 0-6.002-0.833-8.692-2.579-7.414-4.809-9.524-14.717-4.715-22.13a450.6 450.6 0 0 1 44.225-57.421c5.938-6.544 16.058-7.034 22.601-1.095s7.034 16.058 1.095 22.601a418.364 418.364 0 0 0-41.075 53.331c-3.065 4.722-8.2 7.293-13.439 7.293z m647.825-88.98c-3.765 0-7.544-1.32-10.587-4.008a418.336 418.336 0 0 0-53.878-40.351c-7.478-4.708-9.723-14.587-5.015-22.065 4.709-7.478 14.587-9.722 22.065-5.014a450.536 450.536 0 0 1 58.013 43.446c6.623 5.85 7.249 15.961 1.398 22.584a15.956 15.956 0 0 1-11.996 5.408z m-569.504-1.401c-4.455 0-8.886-1.85-12.05-5.466-5.817-6.651-5.142-16.759 1.51-22.577a450.351 450.351 0 0 1 58.246-43.175c7.499-4.673 17.368-2.379 22.04 5.124 4.671 7.501 2.377 17.368-5.124 22.04a418.284 418.284 0 0 0-54.094 40.099 15.944 15.944 0 0 1-10.528 3.955z m469.827-64.61c-2.314 0-4.663-0.504-6.89-1.568a413.868 413.868 0 0 0-62.877-23.979c-8.485-2.465-13.367-11.342-10.902-19.828 2.466-8.487 11.343-13.364 19.828-10.903a445.983 445.983 0 0 1 67.752 25.838c7.973 3.811 11.346 13.364 7.535 21.336-2.747 5.747-8.476 9.104-14.446 9.104z m-369.77-0.937c-6 0-11.751-3.39-14.481-9.176-3.771-7.992-0.349-17.527 7.643-21.298a445.747 445.747 0 0 1 67.921-25.503c8.503-2.419 17.351 2.507 19.771 11.006 2.42 8.499-2.507 17.35-11.006 19.771a413.824 413.824 0 0 0-63.03 23.667 15.96 15.96 0 0 1-6.818 1.533z m255.78-35.086c-0.88 0-1.769-0.072-2.664-0.223-22.014-3.69-44.584-5.618-67.084-5.731a16.288 16.288 0 0 1-1.065-0.041c-0.354 0.023-0.709 0.035-1.069 0.035-22.503 0-45.082 1.813-67.107 5.389-8.721 1.414-16.941-4.507-18.357-13.229-1.416-8.723 4.507-16.941 13.229-18.357C463.479 65.952 487.782 64 511.998 64c0.385 0 0.768 0.014 1.146 0.041 0.379-0.025 0.767-0.037 1.148-0.035 24.214 0.122 48.51 2.198 72.214 6.171 8.715 1.461 14.596 9.71 13.135 18.425-1.312 7.819-8.088 13.357-15.761 13.357z" fill="#47348C" p-id="32407"></path><path d="M512 511.5m-370.65 0a370.65 370.65 0 1 0 741.3 0 370.65 370.65 0 1 0-741.3 0Z" fill="#FF64A3" p-id="32408"></path><path d="M512 172.85c45.732 0 90.078 8.949 131.808 26.6 40.322 17.055 76.542 41.477 107.654 72.589s55.534 67.331 72.589 107.653c17.65 41.73 26.6 86.077 26.6 131.808s-8.949 90.078-26.6 131.808c-17.055 40.322-41.477 76.542-72.589 107.654s-67.331 55.534-107.654 72.589c-41.73 17.65-86.076 26.6-131.808 26.6s-90.078-8.949-131.808-26.6c-40.322-17.055-76.542-41.477-107.653-72.589s-55.534-67.331-72.589-107.654c-17.65-41.73-26.6-86.076-26.6-131.808s8.949-90.078 26.6-131.808c17.055-40.322 41.477-76.542 72.589-107.653s67.331-55.534 107.653-72.589c41.73-17.651 86.076-26.6 131.808-26.6m0-32c-204.704 0-370.65 165.946-370.65 370.65S307.296 882.15 512 882.15 882.65 716.204 882.65 511.5 716.704 140.85 512 140.85z" fill="#47348C" p-id="32409"></path><path d="M340.186 319.183h58.878c4.203 0 8.117 2.138 10.388 5.675l92.161 143.526c4.858 7.566 15.917 7.566 20.775 0l92.161-143.526a12.347 12.347 0 0 1 10.388-5.675h58.878c9.978 0 15.833 11.224 10.125 19.408L589.116 488.856c-5.709 8.184 0.147 19.408 10.125 19.408h53.955c6.818 0 12.345 5.527 12.345 12.345v8.716c0 6.818-5.527 12.345-12.345 12.345H551.908l-0.679 0.541v33.979c0 6.818 5.527 12.345 12.345 12.345h89.622c6.818 0 12.345 5.527 12.345 12.345v8.716c0 6.818-5.527 12.345-12.345 12.345h-89.622c-6.818 0-12.345 5.527-12.345 12.345v57.188c0 6.818-5.527 12.345-12.345 12.345h-53.769c-6.818 0-12.345-5.527-12.345-12.345v-57.188c0-6.818-5.527-12.345-12.345-12.345h-88.953c-6.818 0-12.345-5.527-12.345-12.345v-8.716c0-6.818 5.527-12.345 12.345-12.345h88.953c6.818 0 12.345-5.527 12.345-12.345v-33.98l-0.679-0.541H371.473c-6.818 0-12.345-5.527-12.345-12.345v-8.716c0-6.818 5.527-12.345 12.345-12.345h53.286c9.978 0 15.833-11.224 10.125-19.408L330.061 338.59c-5.708-8.184 0.147-19.407 10.125-19.407z" fill="#FFDA8F" p-id="32410"></path><path d="M683.814 319.182c9.978 0 15.833 11.224 10.125 19.408L589.116 488.856c-5.709 8.184 0.147 19.408 10.125 19.408h53.955c6.818 0 12.345 5.527 12.345 12.345v8.716c0 6.818-5.527 12.345-12.345 12.345H551.908l-0.679 0.541v33.979c0 6.818 5.527 12.345 12.345 12.345h89.622c6.818 0 12.345 5.527 12.345 12.345v8.716c0 6.818-5.527 12.345-12.345 12.345h-89.622c-6.818 0-12.345 5.527-12.345 12.345v57.189c0 6.818-5.527 12.345-12.345 12.345h-53.769c-6.818 0-12.345-5.527-12.345-12.345v-57.189c0-6.818-5.527-12.345-12.345-12.345h-88.953c-6.818 0-12.345-5.527-12.345-12.345v-8.716c0-6.818 5.527-12.345 12.345-12.345h88.953c6.818 0 12.345-5.527 12.345-12.345v-33.98l-0.679-0.541H371.473c-6.818 0-12.345-5.527-12.345-12.345v-8.716c0-6.818 5.527-12.345 12.345-12.345h53.286c9.978 0 15.833-11.224 10.125-19.408L330.061 338.59c-5.709-8.184 0.147-19.408 10.125-19.408h58.878c4.203 0 8.117 2.138 10.387 5.675l92.161 143.526c2.429 3.783 6.408 5.675 10.388 5.675 3.979 0 7.958-1.892 10.388-5.675l92.161-143.526a12.347 12.347 0 0 1 10.388-5.675h58.877m0-32h-58.878c-15.169 0-29.118 7.62-37.315 20.385L512 425.336l-75.622-117.769c-8.196-12.764-22.145-20.384-37.314-20.384h-58.878c-16.582 0-31.647 9.133-39.316 23.834-7.669 14.701-6.54 32.282 2.946 45.882l83.267 119.365h-15.61c-24.452 0-44.345 19.893-44.345 44.345v8.716c0 14.67 7.162 27.7 18.172 35.777-11.01 8.077-18.172 21.107-18.172 35.777v8.716c0 24.452 19.893 44.345 44.345 44.345h69.297v37.533c0 24.452 19.893 44.345 44.345 44.345h53.769c24.452 0 44.345-19.893 44.345-44.345V653.94h69.967c24.452 0 44.345-19.893 44.345-44.345v-8.716c0-14.67-7.162-27.7-18.172-35.777 11.01-8.077 18.172-21.107 18.172-35.777v-8.716c0-24.452-19.893-44.345-44.345-44.345h-16.279l83.267-119.365c9.487-13.6 10.616-31.181 2.946-45.882-7.669-14.702-22.734-23.835-39.316-23.835z" fill="#47348C" p-id="32411"></path></svg>