<?xml version="1.0" standalone="no"?><!DOCTYPE svg PUBLIC "-//W3C//DTD SVG 1.1//EN" "http://www.w3.org/Graphics/SVG/1.1/DTD/svg11.dtd"><svg t="1752635789620" class="icon" viewBox="0 0 1024 1024" version="1.1" xmlns="http://www.w3.org/2000/svg" p-id="10220" xmlns:xlink="http://www.w3.org/1999/xlink" width="200" height="200"><path d="M385.137778 855.381333c-31.744 0-57.571556-25.827556-57.571556-57.571555v-35.043556c-123.335111-64.398222-204.8-189.44-213.333333-328.248889-0.455111-8.192 2.389333-16.042667 7.850667-21.959111 5.688889-5.916444 13.425778-9.329778 21.504-9.329778h22.186666c1.137778-31.857778 15.132444-61.781333 38.343111-81.578666 3.413333-42.097778 29.354667-78.620444 66.218667-93.070222 21.162667-36.636444 64.284444-59.960889 111.274667-59.960889 33.223111 0 64.853333 11.605333 88.291555 32.085333 12.743111-6.030222 26.851556-9.102222 41.187556-9.102222 13.994667 0 27.875556 3.072 40.277333 8.760889 21.504-15.815111 48.696889-24.462222 77.482667-24.462223 5.688889 0 11.491556 0.341333 17.180444 1.024 45.738667 5.575111 83.854222 31.744 101.262222 68.949334 48.810667 8.192 86.129778 54.272 86.129778 107.975111 0 4.209778-0.227556 8.419556-0.682666 12.629333 10.012444 10.353778 17.976889 22.869333 23.324444 36.750222h23.779556c8.078222 0 15.815111 3.299556 21.390222 9.216 5.688889 6.144 8.533333 14.108444 7.964444 22.186667-8.533333 138.695111-90.112 263.850667-213.333333 328.135111v35.043556c0 31.744-25.827556 57.571556-57.571556 57.571555H385.137778z" fill="#401F11" p-id="10221"></path><path d="M381.496889 179.996444c33.564444 0 65.080889 12.970667 86.357333 34.588445a85.060267 85.060267 0 0 1 43.008-11.605333c14.449778 0 28.899556 3.640889 41.642667 10.922666 20.138667-16.952889 47.559111-26.510222 76.117333-26.510222 5.233778 0 10.467556 0.341333 15.815111 1.024 44.373333 5.461333 80.668444 32.085333 94.776889 68.152889 46.193778 4.323556 82.602667 46.421333 82.602667 97.507555 0 5.575111-0.455111 11.264-1.365333 16.839112 12.743111 11.719111 22.072889 26.851556 27.306666 44.032h31.857778c5.006222 0 9.784889 2.048 13.084444 5.575111 3.413333 3.640889 5.233778 8.533333 4.778667 13.539555a385.877333 385.877333 0 0 1-213.447111 321.877334v42.097777c0 25.486222-20.707556 46.193778-46.193778 46.193778H385.137778c-25.486222 0-46.193778-20.707556-46.193778-46.193778v-42.097777c-123.448889-61.667556-204.913778-183.978667-213.333333-321.991112-0.227556-5.006222 1.479111-9.784889 4.778666-13.539555 3.413333-3.527111 8.078222-5.575111 13.084445-5.575111h33.792c-0.227556-2.503111-0.227556-4.892444-0.227556-7.395556 0-31.971556 14.336-61.667556 38.115556-79.872 1.479111-41.415111 27.079111-77.368889 63.146666-89.543111 18.204444-35.157333 58.368-58.026667 103.196445-58.026667m0-22.755555c-49.493333 0-95.232 24.234667-119.011556 62.350222-37.546667 16.384-64.170667 53.589333-69.290666 96.597333-20.935111 19.456-34.474667 46.535111-38.001778 75.776h-11.719111c-11.150222 0-21.959111 4.664889-29.582222 12.743112-7.850667 8.419556-11.605333 19.114667-11.036445 30.378666 8.647111 140.629333 89.998222 267.491556 213.333333 334.506667v28.216889c0 38.001778 30.947556 68.949333 68.949334 68.949333h252.814222c38.001778 0 68.949333-30.947556 68.949333-68.949333v-28.330667c123.448889-67.015111 204.686222-193.877333 213.333334-334.279111 0.796444-10.922667-3.185778-22.072889-10.808889-30.378667a41.107911 41.107911 0 0 0-29.809778-12.970666h-16.270222c-5.006222-10.695111-11.377778-20.593778-19.114667-29.354667 0.227556-2.844444 0.341333-5.802667 0.341333-8.647111 0-57.116444-38.456889-106.382222-89.770666-117.987556-20.024889-37.888-60.074667-64.398222-107.52-70.200889-6.144-0.796444-12.401778-1.137778-18.545778-1.137777-28.785778 0-56.32 8.078222-78.848 22.869333a107.383467 107.383467 0 0 0-38.912-7.281778c-13.539556 0-26.851556 2.503111-39.253333 7.281778-24.803556-19.228444-56.775111-30.151111-90.225778-30.151111z" fill="#42210B" p-id="10222"></path><path d="M684.145778 755.825778a386.048 386.048 0 0 0 213.447111-321.991111c0.341333-5.006222-1.479111-9.784889-4.778667-13.539556-3.413333-3.527111-8.078222-5.575111-13.084444-5.575111h-736.142222c-5.006222 0-9.784889 2.048-13.084445 5.575111-3.413333 3.640889-5.12 8.533333-4.778667 13.539556 8.533333 138.012444 89.884444 260.323556 213.333334 321.991111h340.878222" fill="#2FCC83" p-id="10223"></path><path d="M338.944 755.825778v41.984c0 25.486222 20.707556 46.193778 46.193778 46.193778h252.814222c25.486222 0 46.193778-20.707556 46.193778-46.193778v-41.984H338.944z" fill="#2DB475" p-id="10224"></path><path d="M847.758222 414.72c-5.233778-17.066667-14.563556-32.312889-27.306666-44.032 0.910222-5.575111 1.365333-11.150222 1.365333-16.839111 0-51.086222-36.408889-93.184-82.602667-97.507556-14.108444-36.067556-50.403556-62.691556-94.776889-68.152889-34.247111-4.209778-68.152889 5.461333-91.932444 25.6-25.941333-14.791111-58.709333-14.449778-84.650667 0.682667-21.276444-21.617778-52.792889-34.588444-86.357333-34.588444-44.828444 0-85.105778 22.869333-103.310222 57.799111-36.067556 12.288-61.553778 48.128-63.146667 89.543111-23.665778 18.204444-38.115556 47.900444-38.115556 79.872 0 2.503111 0.113778 4.892444 0.227556 7.395555l670.606222 0.227556z" fill="#FFEF91" p-id="10225"></path><path d="M347.363556 669.923556c3.072 2.048 6.599111 3.072 10.012444 3.072 5.802667 0 11.491556-2.844444 14.791111-8.078223 5.575111-8.305778 3.299556-19.456-5.006222-25.031111-66.787556-44.600889-90.567111-127.772444-90.908445-129.024a17.954133 17.954133 0 0 0-22.072888-12.629333c-9.557333 2.730667-15.246222 12.629333-12.629334 22.186667 1.137778 3.868444 27.420444 97.166222 105.813334 149.504zM297.756444 351.345778c0 15.815111 12.856889 28.672 28.672 28.672 15.815111 0 28.672-12.856889 28.672-28.672s-12.856889-28.672-28.672-28.672c-15.815111 0-28.672 12.856889-28.672 28.672z m122.88-49.152c0 11.264 9.216 20.48 20.48 20.48s20.48-9.216 20.48-20.48-9.216-20.48-20.48-20.48c-11.377778 0-20.48 9.216-20.48 20.48z m99.669334 73.614222c10.467556 1.934222 20.593778-5.006222 22.414222-15.587556 1.934222-10.467556-5.006222-20.593778-15.587556-22.414222h-0.113777c-10.467556-1.934222-20.593778 5.006222-22.414223 15.587556s5.006222 20.593778 15.701334 22.414222c-0.113778 0-0.113778 0 0 0z m104.903111-65.763556a24.6784 24.6784 0 1 0 8.760889-48.583111h-0.227556a24.6784 24.6784 0 1 0-8.760889 48.583111h0.227556z m75.320889 76.572445a22.584889 22.584889 0 1 0 7.850666-44.487111 22.584889 22.584889 0 0 0-7.850666 44.487111z" fill="#FFFFFF" p-id="10226"></path><path d="M338.944 755.143111h345.315556v30.151111H338.944z" fill="#269662" p-id="10227"></path><path d="M880.412444 414.72c5.006222 0 9.784889 2.048 13.084445 5.575111 3.413333 3.640889 5.233778 8.533333 4.778667 13.539556a385.877333 385.877333 0 0 1-213.447112 321.877333v42.097778c0 25.486222-20.707556 46.193778-46.193777 46.193778H385.934222c-25.486222 0-46.193778-20.707556-46.193778-46.193778v-42.097778C216.291556 694.044444 134.826667 571.733333 126.407111 433.720889c-0.227556-5.006222 1.479111-9.784889 4.778667-13.539556 3.413333-3.527111 8.078222-5.575111 13.084444-5.575111h736.142222m0-22.641778h-736.142222c-11.150222 0-21.959111 4.664889-29.582222 12.743112-7.850667 8.419556-11.605333 19.114667-11.036444 30.378666 8.647111 140.629333 89.998222 267.491556 213.333333 334.506667v28.216889c0 38.001778 30.947556 68.949333 68.949333 68.949333h252.814222c38.001778 0 68.949333-30.947556 68.949334-68.949333v-28.330667c123.448889-66.901333 204.8-193.763556 213.447111-334.279111 0.796444-10.922667-3.185778-22.072889-10.808889-30.378667-7.964444-8.192-18.659556-12.856889-29.923556-12.856889z" fill="#42210B" p-id="10228"></path></svg>