<?xml version="1.0" standalone="no"?><!DOCTYPE svg PUBLIC "-//W3C//DTD SVG 1.1//EN" "http://www.w3.org/Graphics/SVG/1.1/DTD/svg11.dtd"><svg t="1752224016835" class="icon" viewBox="0 0 1060 1024" version="1.1" xmlns="http://www.w3.org/2000/svg" p-id="5377" xmlns:xlink="http://www.w3.org/1999/xlink" width="207.03125" height="200"><path d="M919.405714 701.44c25.6-28.672 40.96-66.56 40.96-107.52 0-76.8-52.224-140.288-122.88-158.72 13.312-22.528 20.48-49.152 20.48-76.8a153.417143 153.417143 0 0 0-150.528-153.6 838.180571 838.180571 0 0 0-54.272-61.44C613.229714 103.424 607.085714 0 550.765714 0c-56.32 0-103.424 103.424-143.36 143.36A650.166857 650.166857 0 0 0 353.133714 204.8 153.417143 153.417143 0 0 0 202.605714 358.4c0 27.648 7.168 54.272 20.48 76.8a163.766857 163.766857 0 0 0-122.88 158.72c0 40.96 15.36 78.848 40.96 107.52C70.509714 719.872 18.285714 784.384 18.285714 860.16A164.315429 164.315429 0 0 0 182.125714 1024h696.32a164.315429 164.315429 0 0 0 163.84-163.84c0-75.776-52.224-140.288-122.88-158.72z" fill="#A76F6E" p-id="5378"></path><path d="M182.125714 616.448c0 21.577143 19.529143 41.545143 51.2 52.297143a165.997714 165.997714 0 0 0 102.4 0c31.670857-10.752 51.2-30.72 51.2-52.297143 0-33.353143-45.860571-60.416-102.4-60.416-56.539429 0-102.4 27.062857-102.4 60.416zM673.645714 615.424c0 33.353143 45.860571 60.416 102.4 60.416 56.539429 0 102.4-27.062857 102.4-60.416 0-33.353143-45.860571-60.416-102.4-60.416-56.539429 0-102.4 27.062857-102.4 60.416z" fill="#F48C8C" p-id="5379"></path><path d="M253.805714 532.48a133.12 133.12 0 1 0 266.24 0 133.12 133.12 0 0 0-266.24 0z" fill="#FFFFFF" p-id="5380"></path><path d="M386.925714 460.8c-39.936 0-71.68 31.744-71.68 71.68s31.744 71.68 71.68 71.68 71.68-31.744 71.68-71.68-31.744-71.68-71.68-71.68z" fill="#5E4027" p-id="5381"></path><path d="M540.525714 532.48a133.12 133.12 0 1 0 266.24 0 133.12 133.12 0 0 0-266.24 0z" fill="#FFFFFF" p-id="5382"></path><path d="M673.645714 460.8c-39.936 0-71.68 31.744-71.68 71.68s31.744 71.68 71.68 71.68 71.68-31.744 71.68-71.68-31.744-71.68-71.68-71.68zM671.597714 702.464c-9.216-2.048-19.456 3.072-22.528 11.264a81.554286 81.554286 0 0 1-50.176 47.104 206.994286 206.994286 0 0 1-136.192 0 87.405714 87.405714 0 0 1-50.176-47.104 19.419429 19.419429 0 0 0-22.528-11.264c-12.288 2.048-19.456 15.36-15.36 27.648 13.312 32.768 40.96 58.368 74.752 70.656a246.601143 246.601143 0 0 0 162.816 0 124.342857 124.342857 0 0 0 74.752-70.656c4.096-12.288-3.072-25.6-15.36-27.648z" fill="#5E4027" p-id="5383"></path></svg>