<?xml version="1.0" standalone="no"?><!DOCTYPE svg PUBLIC "-//W3C//DTD SVG 1.1//EN" "http://www.w3.org/Graphics/SVG/1.1/DTD/svg11.dtd"><svg t="1751896962373" class="icon" viewBox="0 0 1024 1024" version="1.1" xmlns="http://www.w3.org/2000/svg" p-id="8887" xmlns:xlink="http://www.w3.org/1999/xlink" width="200" height="200"><path d="M480.84 896c-105.22 0-203.41-41.89-276.46-117.62S93.14 602.83 97.16 497.29c3.36-97.84 44.58-190.34 115.28-259.7a383.3 383.3 0 0 1 343.47-102.21 33.14 33.14 0 0 1 3 64.33 233 233 0 0 0-168.55 231.55c1.67 60.32 26.8 116.62 70 159.18 43.55 42.55 100.52 66.35 160.84 67h2.35a234.6 234.6 0 0 0 170.9-74.4C805.2 571.67 821.28 569 835 576.7a33.18 33.18 0 0 1 15.74 37.86C805.2 780.43 653.07 896 480.83 896z m0 0" fill="#0795FF" p-id="8888"></path><path d="M807.71 209.28A12.36 12.36 0 0 1 819.1 217a12.5 12.5 0 0 1-3 13.39L769.43 260l44.57-3.46a12 12 0 0 1 12.1 12.06 12.3 12.3 0 0 1-12.39 12.07h-73.27A12.36 12.36 0 0 1 729 273a12.55 12.55 0 0 1 3-13.4l44.82-26.15h-42.07a12.07 12.07 0 1 1 0-24.13zM678.58 280.48a17.07 17.07 0 0 1 15.72 10.64 17.29 17.29 0 0 1-4.17 18.47l-64.36 40.79 61.54-4.71A16.56 16.56 0 0 1 704 362.31c0 9.24-7.85 16.65-17.09 16.65H585.79a17 17 0 0 1-15.73-10.64 17.34 17.34 0 0 1 4.16-18.49l61.83-36.06h-58.11a16.65 16.65 0 0 1 0-33.29zM913.75 153a9 9 0 0 1 8.28 5.6 9.1 9.1 0 0 1-2.19 9.74l-33.93 21.51 32.44-2.49a8.74 8.74 0 0 1 8.78 8.78 9 9 0 0 1-9 8.77h-53.3a9 9 0 0 1-8.3-5.61 9.14 9.14 0 0 1 2.2-9.74l32.59-19h-30.63a8.77 8.77 0 1 1 0-17.54z" fill="#CCD8E5" p-id="8889"></path></svg>