<?xml version="1.0" standalone="no"?><!DOCTYPE svg PUBLIC "-//W3C//DTD SVG 1.1//EN" "http://www.w3.org/Graphics/SVG/1.1/DTD/svg11.dtd"><svg t="1752686203477" class="icon" viewBox="0 0 1024 1024" version="1.1" xmlns="http://www.w3.org/2000/svg" p-id="15876" xmlns:xlink="http://www.w3.org/1999/xlink" width="200" height="200"><path d="M512 512m-512 0a512 512 0 1 0 1024 0 512 512 0 1 0-1024 0Z" fill="#FFCE46" p-id="15877"></path><path d="M512 1024C228.894118 1024 0 795.105882 0 512S228.894118 0 512 0s512 228.894118 512 512-228.894118 512-512 512z m0-978.823529C256 45.176471 45.176471 256 45.176471 512s210.823529 466.823529 466.823529 466.823529 466.823529-210.823529 466.823529-466.823529S768 45.176471 512 45.176471z" p-id="15878"></path><path d="M259.704471 770.258824V411.858824c0-54.211765 45.176471-96.376471 99.388235-96.376471h316.235294c54.211765 0 99.388235 45.176471 99.388235 96.376471v183.717647c0 54.211765-45.176471 96.376471-99.388235 96.37647H479.563294l-219.858823 78.305883z" fill="#FFCE46" p-id="15879"></path><path d="M280.786824 740.141176l189.741176-66.258823 6.023529-3.011765h195.764706c42.164706 0 75.294118-33.129412 75.294118-75.294117v-183.717647c0-42.164706-33.129412-75.294118-75.294118-75.294118h-316.235294c-42.164706 0-75.294118 33.129412-75.294117 75.294118V740.141176m-45.176471 63.247059v-391.529411c0-66.258824 54.211765-120.470588 120.470588-120.470589h316.235294c66.258824 0 120.470588 54.211765 120.470589 120.470589v183.717647c0 66.258824-54.211765 120.470588-120.470589 120.470588h-186.729411l-249.976471 87.341176z" p-id="15880"></path><path d="M641.837176 461.462588h-271.058823c-12.047059 0-24.094118-9.035294-24.094118-24.094117s9.035294-24.094118 24.094118-24.094118h271.058823c12.047059 0 24.094118 9.035294 24.094118 24.094118s-12.047059 24.094118-24.094118 24.094117z" p-id="15881"></path><path d="M641.837176 593.980235h-271.058823c-12.047059 0-24.094118-9.035294-24.094118-24.094117s9.035294-24.094118 24.094118-24.094118h271.058823c12.047059 0 24.094118 9.035294 24.094118 24.094118s-12.047059 24.094118-24.094118 24.094117z" p-id="15882"></path></svg>