<?xml version="1.0" standalone="no"?><!DOCTYPE svg PUBLIC "-//W3C//DTD SVG 1.1//EN" "http://www.w3.org/Graphics/SVG/1.1/DTD/svg11.dtd"><svg t="1751912961176" class="icon" viewBox="0 0 1024 1024" version="1.1" xmlns="http://www.w3.org/2000/svg" p-id="8659" xmlns:xlink="http://www.w3.org/1999/xlink" width="200" height="200"><path d="M307.2 491.52m81.92 0l245.76 0q81.92 0 81.92 81.92l0 286.72q0 81.92-81.92 81.92l-245.76 0q-81.92 0-81.92-81.92l0-286.72q0-81.92 81.92-81.92Z" fill="#FF9A27" p-id="8660"></path><path d="M107.39712 1024c-0.4096 0-0.77824 0-1.14688-0.08192a44.72832 44.72832 0 0 1-42.27072-44.72832v-2.53952a44.72832 44.72832 0 0 1 43.4176-44.81024h109.7728v-171.54048A294.2976 294.2976 0 0 1 352.95232 512a294.2976 294.2976 0 0 1-135.7824-248.34048V92.16H106.0864C81.42848 92.16 61.44 72.0896 61.44 47.34976v-2.53952C61.44 20.0704 81.42848 0 106.0864 0h809.24672c24.65792 0 44.6464 20.0704 44.6464 44.81024v2.53952c0 24.73984-19.98848 44.81024-44.6464 44.81024h-111.04256v171.54048A294.2976 294.2976 0 0 1 668.4672 512a294.2976 294.2976 0 0 1 135.82336 248.34048v171.49952h113.58208c24.69888 0 44.68736 20.0704 44.68736 44.81024v2.53952C962.56 1003.9296 942.57152 1024 917.9136 1024H107.35616z m403.33312-465.92a199.63904 199.63904 0 0 0-142.5408 59.26912 200.78592 200.78592 0 0 0-59.14624 142.9504v171.54048h403.33312v-171.54048c0-53.98528-20.8896-104.81664-59.06432-142.9504a199.63904 199.63904 0 0 0-142.58176-59.26912zM712.37632 92.16H309.0432v171.54048c0 53.98528 20.93056 104.81664 59.10528 142.9504a199.63904 199.63904 0 0 0 142.5408 59.26912 199.63904 199.63904 0 0 0 142.62272-59.26912 200.78592 200.78592 0 0 0 59.06432-142.9504V92.16z" fill="#000000" p-id="8661"></path></svg>