<?xml version="1.0" standalone="no"?><!DOCTYPE svg PUBLIC "-//W3C//DTD SVG 1.1//EN" "http://www.w3.org/Graphics/SVG/1.1/DTD/svg11.dtd"><svg t="1752858485393" class="icon" viewBox="0 0 1024 1024" version="1.1" xmlns="http://www.w3.org/2000/svg" p-id="5277" xmlns:xlink="http://www.w3.org/1999/xlink" width="200" height="200"><path d="M133.952165 1019.542795a16.709297 16.709297 0 0 1-16.709297-16.709296v-948.252582a16.709297 16.709297 0 0 1 33.418593 0v948.252582a16.709297 16.709297 0 0 1-16.709296 16.709296z" fill="#6E6E96" p-id="5278"></path><path d="M345.95972 515.899532c-3.73035 0-7.335381-2.005116-9.219355-5.522422l-211.9992-396.565914a10.44331 10.44331 0 0 1 11.638025-15.08014l299.451482 71.553386a10.447488 10.447488 0 0 1 7.732227 12.586277 10.46002 10.46002 0 0 1-12.586278 7.732227L154.107754 124.438309l201.050434 376.08867a10.44331 10.44331 0 0 1-9.198468 15.372553z" fill="#6E6E96" p-id="5279"></path><path d="M921.661824 593.121546c-29.149368 57.943663-103.568398 89.340432-165.396972 69.757136L333.582308 529.058103c-61.816043-19.579118-88.571804-82.986721-59.43079-140.930385L365.772768 205.94208c29.132659-57.931131 96.918098-75.58868 150.605068-39.216719l364.646979 246.98429c53.695325 36.367784 73.784076 113.527138 44.647241 171.45827l-4.010232 7.953625z" fill="#FFFFFF" p-id="5280"></path><path d="M794.758894 685.415346c-15.050899 0-29.69242-2.218159-43.544427-6.60435L328.540278 544.990417c-34.642549-10.969653-60.988933-34.237349-74.176745-65.521329-13.19199-31.279803-11.462577-66.386035 4.862406-98.852198l91.62125-182.185638c20.890798-41.539311 61.440084-67.342643 105.82833-67.342643 24.136579 0 48.022518 7.54007 69.072055 21.801455l364.646979 246.98429c60.529427 41.000436 83.053559 127.491933 50.207259 192.804396l-4.014408 7.957802c-25.502564 50.708538-82.493797 84.778794-141.82851 84.778794zM456.675519 164.507202c-32.161219 0-60.562845 18.29668-75.972994 48.94153L289.081274 395.63437c-11.859423 23.576817-13.250472 48.736841-3.926684 70.847417 9.323787 22.110577 28.31808 38.677844 53.473926 46.644002l422.682544 133.820579c10.576985 3.350214 21.839051 5.046208 33.460366 5.046207 47.003251 0 91.993032-26.676392 111.973174-66.386035l4.010231-7.957802c25.573578-50.850567 8.037172-118.184855-39.091399-150.107966l-364.64698-246.98429c-15.510405-10.497616-32.913137-16.049279-50.340933-16.04928z" fill="#6E6E96" p-id="5281"></path><path d="M551.805722 598.14269l83.437872 26.425752 141.552806-281.447214-72.146565-48.870515-152.844113 303.891977z m329.214916-184.437216l-34.028483-23.046297-130.566443 259.612341 39.830785 12.611342c15.43939 4.879115 31.680826 6.600172 47.780234 5.50989l110.857828-220.437395c-8.981247-13.359083-20.368633-25.101541-33.873921-34.249881zM389.721368 546.82844l83.446227 26.417398 163.471226-325.062656-72.150743-48.870515-174.76671 347.515773z" fill="#FF94AF" p-id="5282"></path><path d="M525.664027 176.099277l-10.44331-7.080565a114.362603 114.362603 0 0 0-13.037429-7.60273c3.333505 1.77954 6.637768 3.721996 9.908613 5.848254l13.572126 8.835041z m395.705385 286.923686c11.658912 28.894551 12.394121 60.391575-0.626599 86.311872l-3.333505 6.600172c-24.199239 48.126951-92.511021 70.926787-151.803959 50.675119l-405.363358-138.465764c-59.297116-20.255845-88.01622-76.190215-63.816981-124.308812l-23.430611 46.589697c-29.136836 57.935309-2.381075 121.342912 59.434968 140.930384l422.686721 133.808047c61.828575 19.583296 136.251782-11.813473 165.392795-69.744603l4.010231-7.957803c19.549877-38.870001 16.905631-86.387063-3.149702-124.438309z" fill="#6E6E96" opacity=".15" p-id="5283"></path><path d="M439.452412 233.395455l412.013657 270.799215c28.877842 18.981761 49.835477 47.074266 60.750826 77.539491 23.82328-56.899332 3.245781-129.029188-48.122775-163.830476l-364.655334-246.98429C445.747639 134.551611 377.970555 152.200805 348.833719 210.140291l-1.37434 2.727793c29.232914-5.451408 62.154406 0.919011 91.993033 20.527371z" fill="#FFFFFF" opacity=".38" p-id="5284"></path><path d="M794.746362 685.406991c-15.03419 0-29.675711-2.218159-43.519363-6.591817l-39.83914-12.615519a16.75107 16.75107 0 0 1-10.355587-9.440753 16.742715 16.742715 0 0 1 0.463683-14.00239L832.066576 383.144171a16.692587 16.692587 0 0 1 24.29114-6.328646l34.028483 23.046297c14.992416 10.155075 27.904525 23.192504 38.372899 38.757213a16.709297 16.709297 0 0 1 1.069395 16.834617l-110.853651 220.424863a16.700942 16.700942 0 0 1-13.797701 9.165049c-3.471356 0.242285-6.980309 0.363427-10.430779 0.363427z m-54.580917-45.144342l21.13726 6.692074a110.557061 110.557061 0 0 0 32.286538 5.029498l101.793035-202.408064a107.641289 107.641289 0 0 0-23.735556-22.031208l-18.275793-12.377411-113.205484 225.095111z m-104.921851 1.023445a16.792843 16.792843 0 0 1-5.046207-0.785337l-83.44205-26.425753a16.75107 16.75107 0 0 1-10.351409-9.440752 16.75107 16.75107 0 0 1 0.46786-13.998214l152.839936-303.900331a16.726006 16.726006 0 0 1 10.710659-8.663771 16.675878 16.675878 0 0 1 13.584658 2.339302l72.146565 48.870515a16.709297 16.709297 0 0 1 5.555842 21.341949l-141.552807 281.447215a16.684233 16.684233 0 0 1-14.913047 9.215177z m-59.698139-53.15645l51.168043 16.208018 128.557151-255.614642-44.246217-29.972301-135.478977 269.378925z m-102.37786 1.829668c-1.675107 0-3.375278-0.254817-5.046208-0.785337l-83.446227-26.417398a16.717651 16.717651 0 0 1-9.883549-23.443143l174.76671-347.515773a16.692587 16.692587 0 0 1 24.29114-6.328646L646.008559 234.347885a16.709297 16.709297 0 0 1 5.555841 21.341949l-163.467049 325.062655a16.717651 16.717651 0 0 1-14.929756 9.206823z m-59.706494-53.139741l51.176398 16.203841 150.471393-299.234261-44.250395-29.972301-157.397396 313.002721z" fill="#6E6E96" p-id="5285"></path><path d="M304.336862 531.26373c-10.134188 20.151412-34.914075 28.343144-55.065487 18.208956l-8.262747-4.156437c-20.151412-10.130011-28.351499-34.901543-18.213133-55.06131l194.333296-386.435902c10.138366-20.155589 34.92243-28.347322 55.073842-18.213133l8.25857 4.15226c20.155589 10.134188 28.351499 34.914075 18.21731 55.069664l-194.341651 386.435902z" fill="#C5C5E0" p-id="5286"></path><path d="M267.57641 570.530577c-8.91441 0-17.841351-2.122081-25.811686-6.136489l-8.266925-4.15226c-13.730864-6.900939-23.965309-18.781249-28.819359-33.452012a57.304533 57.304533 0 0 1 3.187298-44.045706l194.333297-386.431724c9.854308-19.59165 29.663179-31.764373 51.694386-31.764373 8.91441 0 17.841351 2.117903 25.820041 6.128134l8.254392 4.148083c28.439223 14.303158 39.943573 49.071027 25.640416 77.506072l-194.341651 386.44008c-9.854308 19.59165-29.659001 31.760195-51.690209 31.760195zM453.893421 97.966606c-9.323787 0-17.690968 5.121399-21.834873 13.359083l-194.333297 386.431724a24.107338 24.107338 0 0 0-1.315857 18.538965 24.098983 24.098983 0 0 0 12.105885 14.08176l8.266925 4.160614c3.383633 1.700171 7.017905 2.564877 10.794206 2.564877 9.181758 0 17.753628-5.242542 21.830696-13.354905l194.341651-386.435902a24.332913 24.332913 0 0 0-10.794206-32.633256l-8.25857-4.148083a23.877585 23.877585 0 0 0-10.80256-2.564877z" fill="#6E6E96" p-id="5287"></path><path d="M478.15532 94.340689l-8.262747-4.156438a40.787393 40.787393 0 0 0-13.747574-4.047827l1.144587 0.576471c13.36326 6.717137 16.617395 27.470084 7.239302 46.121836l-179.812917 357.55806c-9.378093 18.63922-27.983894 28.401627-41.3388 21.684489l-5.484827-2.752856c-8.095654-4.072891-12.460958-13.321487-12.565391-24.124047l-4.845696 9.632909c-10.134188 20.151412-1.938278 44.935476 18.213133 55.073842l8.262748 4.15226c20.155589 10.134188 44.927121 1.942456 55.069664-18.21731l194.333296-386.423371c10.142543-20.159766 1.946633-44.939653-18.204778-55.078018z" fill="#6E6E96" opacity=".25" p-id="5288"></path></svg>